{"title":"Source Code(2011) Dual Audio(Hindi-Eng)-=MTR=-","uid":6466919,"size":468573278,"categoryP":"video","categoryS":"movies","magnet":"?xt=urn:btih:df13fb6e11ccf5705d15fc32501b48d15ac1d398&amp;dn=Source+Code%282011%29+Dual+Audio%28Hindi-Eng%29-%3DMTR%3D-&amp;tr=udp%3A%2F%2Ftracker.openbittorrent.com%3A80&amp;tr=udp%3A%2F%2Fopen.demonii.com%3A1337&amp;tr=udp%3A%2F%2Ftracker.coppersurfer.tk%3A6969&amp;tr=udp%3A%2F%2Fexodus.desync.com%3A6969","seeders":0,"leechers":1,"uploader":"HDvideos","files":4,"time":1307991644,"description":"Source Code(2011) Dual Audio(Hindi-Eng)-=MTR=-\n &lt;a href=&quot;\nhttp://www.shotpix.com/images/52529906024489596903.jpg&quot; rel=&quot;nofollow&quot; target=&quot;_NEW&quot;&gt;\nhttp://www.shotpix.com/images/52529906024489596903.jpg&lt;/a&gt;\n\nCredits to imkhan\n\nCheck out MY latest Uploads:\n &lt;a href=&quot;\nhttp://thepiratebay.se/user/HDvideos/0/7&quot; rel=&quot;nofollow&quot; target=&quot;_NEW&quot;&gt;\nhttp://thepiratebay.se/user/HDvideos/0/7&lt;/a&gt;\n\nStay updated with us....\n\nSeed after downloading....\n\nEnjoY with HDvideos..\n\nTorrent From Mastitorrents\n\nTeam Mastitorrents\n\nSay thanks if u like my posts\n\nGive ur valuable feedbacks\n\nQuality Uploads from HDvideos\n\nFormat                           : Matroska\nFile size                        : 438 MiB\nDuration                         : 1h 26mn [end credit cut]\nOverall bit rate                 : 707 Kbps\nEncoded date                     : UTC 2011-06-12 12:28:37\nWriting application              : mkvmerge v4.7.0 ('Just Like You Imagined') built on Apr 21 2011 01:13:14\nWriting library                  : libebml v1.2.0 + libmatroska v1.1.0\n\nVideo\nID                               : 1\nFormat                           : AVC\nFormat/Info                      : Advanced Video Codec\nFormat profile                   : [email=&quot;High****************L4.0&quot;]High****************L4.0[/email]\nFormat settings, CABAC           : Yes\nFormat settings, ReFrames        : 3 frames\nMuxing mode                      : Container [email=&quot;profile=Unknown****************4.0&quot;]profile=Unknown****************4.0[/email]\nCodec ID                         : V_MPEG4/ISO/AVC\nDuration                         : 1h 26mn\nBit rate                         : 565 Kbps\nWidth                            : 720 pixels\nHeight                           : 400 pixels\nDisplay aspect ratio             : 16:9\nFrame rate                       : 29.970 fps\nResolution                       : 24 bits\nColorimetry                      : 4:2:0\nScan type                        : Progressive\nBits/(Pixel*Frame)               : 0.065\nStream size                      : 350 MiB (80%)\nWriting library                  : x264 core 104 r1683 62997d6\nEncoding settings                : cabac=1 / ref=3 / deblock=1:0:0 / analyse=0x3:0x133 / me=umh / subme=7 / psy=1 / psy_rd=1.00:0.00 / mixed_ref=1 / me_range=16 / chroma_me=1 / trellis=1 / 8x8dct=1 / cqm=0 / deadzone=21,11 / fast_pskip=1 / chroma_qp_offset=-2 / threads=6 / sliced_threads=0 / nr=0 / decimate=1 / interlaced=0 / constrained_intra=0 / bframes=3 / b_pyramid=0 / b_adapt=1 / b_bias=0 / direct=1 / weightb=1 / open_gop=0 / weightp=2 / keyint=300 / keyint_min=30 / scenecut=40 / intra_refresh=0 / rc_lookahead=40 / rc=crf / mbtree=1 / crf=22.0 / qcomp=0.60 / qpmin=10 / qpmax=51 / qpstep=4 / vbv_maxrate=650 / vbv_bufsize=600 / crf_max=0.0 / ip_ratio=1.40 / aq=1:1.00 / nal_hrd=none\nLanguage                         : Hindi\n\nAudio #1\nID                               : 2\nFormat                           : MPEG Audio\nFormat version                   : Version 2\nFormat profile                   : Layer 3\nCodec ID                         : A_MPEG/L3\nCodec ID/Hint                    : MP3\nDuration                         : 1h 26mn\nBit rate mode                    : Constant\nBit rate                         : 64.0 Kbps\nChannel(s)                       : 2 channels\nSampling rate                    : 22.05 KHz\nResolution                       : 16 bits\nStream size                      : 39.7 MiB (9%)\nLanguage                         : Hindi\n\nAudio #2\nID                               : 3\nFormat                           : MPEG Audio\nFormat version                   : Version 2\nFormat profile                   : Layer 3\nCodec ID                         : A_MPEG/L3\nCodec ID/Hint                    : MP3\nDuration                         : 1h 26mn\nBit rate mode                    : Constant\nBit rate                         : 64.0 Kbps\nChannel(s)                       : 2 channels\nSampling rate                    : 22.05 KHz\nResolution                       : 16 bits\nStream size                      : 39.7 MiB (9%)","torrent":{"xt":"urn:btih:df13fb6e11ccf5705d15fc32501b48d15ac1d398","amp;dn":"Source+Code%282011%29+Dual+Audio%28Hindi-Eng%29-%3DMTR%3D-","amp;tr":["udp%3A%2F%2Ftracker.openbittorrent.com%3A80","udp%3A%2F%2Fopen.demonii.com%3A1337","udp%3A%2F%2Ftracker.coppersurfer.tk%3A6969","udp%3A%2F%2Fexodus.desync.com%3A6969"],"infoHash":"df13fb6e11ccf5705d15fc32501b48d15ac1d398","infoHashBuffer":{"type":"Buffer","data":[223,19,251,110,17,204,245,112,93,21,252,50,80,27,72,209,90,193,211,152]},"announce":[],"urlList":[]}}